solid OpenSCAD_Model
  facet normal -1 0 0
    outer loop
      vertex -110 10 0
      vertex -110 10 10
      vertex -110 170 0
    endloop
  endfacet
  facet normal -1 0 0
    outer loop
      vertex -110 170 0
      vertex -110 10 10
      vertex -110 170 10
    endloop
  endfacet
  facet normal 0 -1 0
    outer loop
      vertex -110 10 10
      vertex -110 10 0
      vertex -10 10 0
    endloop
  endfacet
  facet normal 0 -1 0
    outer loop
      vertex -10 10 10
      vertex -110 10 10
      vertex -10 10 0
    endloop
  endfacet
  facet normal 0 0 -1
    outer loop
      vertex -95 150 0
      vertex -110 170 0
      vertex -10 170 0
    endloop
  endfacet
  facet normal 0 0 -1
    outer loop
      vertex -25 150 0
      vertex -95 150 0
      vertex -10 170 0
    endloop
  endfacet
  facet normal 0 0 -1
    outer loop
      vertex -110 10 0
      vertex -110 170 0
      vertex -95 25 0
    endloop
  endfacet
  facet normal 0 0 -1
    outer loop
      vertex -110 10 0
      vertex -95 25 0
      vertex -10 10 0
    endloop
  endfacet
  facet normal 0 0 -1
    outer loop
      vertex -25 150 0
      vertex -10 10 0
      vertex -25 25 0
    endloop
  endfacet
  facet normal 0 0 -1
    outer loop
      vertex -95 25 0
      vertex -25 25 0
      vertex -10 10 0
    endloop
  endfacet
  facet normal 0 0 -1
    outer loop
      vertex -10 10 0
      vertex -25 150 0
      vertex -10 170 0
    endloop
  endfacet
  facet normal 0 0 -1
    outer loop
      vertex -95 25 0
      vertex -110 170 0
      vertex -95 150 0
    endloop
  endfacet
  facet normal 0 1 0
    outer loop
      vertex -110 170 0
      vertex -110 170 10
      vertex -10 170 0
    endloop
  endfacet
  facet normal 0 1 0
    outer loop
      vertex -10 170 0
      vertex -110 170 10
      vertex -10 170 10
    endloop
  endfacet
  facet normal 0 0 1
    outer loop
      vertex -105 15 10
      vertex -110 10 10
      vertex -10 10 10
    endloop
  endfacet
  facet normal 0 0 1
    outer loop
      vertex -15 15 10
      vertex -105 15 10
      vertex -10 10 10
    endloop
  endfacet
  facet normal 0 0 1
    outer loop
      vertex -110 170 10
      vertex -110 10 10
      vertex -105 15 10
    endloop
  endfacet
  facet normal 0 0 1
    outer loop
      vertex -10 170 10
      vertex -110 170 10
      vertex -105 165 10
    endloop
  endfacet
  facet normal 0 0 1
    outer loop
      vertex -10 170 10
      vertex -15 165 10
      vertex -10 10 10
    endloop
  endfacet
  facet normal 0 0 1
    outer loop
      vertex -10 170 10
      vertex -105 165 10
      vertex -15 165 10
    endloop
  endfacet
  facet normal 0 0 1
    outer loop
      vertex -15 165 10
      vertex -15 15 10
      vertex -10 10 10
    endloop
  endfacet
  facet normal 0 0 1
    outer loop
      vertex -105 15 10
      vertex -105 165 10
      vertex -110 170 10
    endloop
  endfacet
  facet normal 1 0 0
    outer loop
      vertex -10 10 10
      vertex -10 10 0
      vertex -10 170 0
    endloop
  endfacet
  facet normal 1 0 0
    outer loop
      vertex -10 170 10
      vertex -10 10 10
      vertex -10 170 0
    endloop
  endfacet
  facet normal 1 0 0
    outer loop
      vertex -95 150 0
      vertex -95 150 2
      vertex -95 25 2
    endloop
  endfacet
  facet normal 1 0 0
    outer loop
      vertex -95 25 0
      vertex -95 150 0
      vertex -95 25 2
    endloop
  endfacet
  facet normal 0 -1 0
    outer loop
      vertex -25 150 0
      vertex -25 150 2
      vertex -95 150 2
    endloop
  endfacet
  facet normal 0 -1 0
    outer loop
      vertex -95 150 0
      vertex -25 150 0
      vertex -95 150 2
    endloop
  endfacet
  facet normal -1 0 0
    outer loop
      vertex -25 150 2
      vertex -25 150 0
      vertex -25 25 2
    endloop
  endfacet
  facet normal -1 0 0
    outer loop
      vertex -25 25 2
      vertex -25 150 0
      vertex -25 25 0
    endloop
  endfacet
  facet normal 0 1 0
    outer loop
      vertex -25 25 2
      vertex -25 25 0
      vertex -95 25 2
    endloop
  endfacet
  facet normal 0 1 0
    outer loop
      vertex -95 25 2
      vertex -25 25 0
      vertex -95 25 0
    endloop
  endfacet
  facet normal 1 0 0
    outer loop
      vertex -105 165 4
      vertex -105 165 10
      vertex -105 15 10
    endloop
  endfacet
  facet normal 1 0 0
    outer loop
      vertex -105 15 4
      vertex -105 165 4
      vertex -105 15 10
    endloop
  endfacet
  facet normal 0 1 0
    outer loop
      vertex -15 15 10
      vertex -15 15 4
      vertex -105 15 10
    endloop
  endfacet
  facet normal 0 1 0
    outer loop
      vertex -105 15 10
      vertex -15 15 4
      vertex -19 15 4
    endloop
  endfacet
  facet normal 0 1 0
    outer loop
      vertex -105 15 10
      vertex -19 15 4
      vertex -19 15 2
    endloop
  endfacet
  facet normal 0 1 0
    outer loop
      vertex -101 15 4
      vertex -19 15 2
      vertex -101 15 2
    endloop
  endfacet
  facet normal 0 1 0
    outer loop
      vertex -105 15 10
      vertex -19 15 2
      vertex -101 15 4
    endloop
  endfacet
  facet normal 0 1 0
    outer loop
      vertex -105 15 4
      vertex -105 15 10
      vertex -101 15 4
    endloop
  endfacet
  facet normal -1 0 0
    outer loop
      vertex -15 165 10
      vertex -15 165 4
      vertex -15 15 10
    endloop
  endfacet
  facet normal -1 0 0
    outer loop
      vertex -15 15 10
      vertex -15 165 4
      vertex -15 15 4
    endloop
  endfacet
  facet normal 0 -1 0
    outer loop
      vertex -15 165 4
      vertex -15 165 10
      vertex -105 165 10
    endloop
  endfacet
  facet normal 0 -1 0
    outer loop
      vertex -105 165 4
      vertex -15 165 4
      vertex -105 165 10
    endloop
  endfacet
  facet normal 0 0 1
    outer loop
      vertex -95 150 2
      vertex -19 153 2
      vertex -101 153 2
    endloop
  endfacet
  facet normal 0 0 1
    outer loop
      vertex -25 150 2
      vertex -25 25 2
      vertex -19 15 2
    endloop
  endfacet
  facet normal 0 0 1
    outer loop
      vertex -25 150 2
      vertex -19 153 2
      vertex -95 150 2
    endloop
  endfacet
  facet normal 0 0 1
    outer loop
      vertex -19 15 2
      vertex -19 153 2
      vertex -25 150 2
    endloop
  endfacet
  facet normal 0 0 1
    outer loop
      vertex -101 15 2
      vertex -19 15 2
      vertex -25 25 2
    endloop
  endfacet
  facet normal 0 0 1
    outer loop
      vertex -101 15 2
      vertex -95 25 2
      vertex -101 153 2
    endloop
  endfacet
  facet normal 0 0 1
    outer loop
      vertex -101 15 2
      vertex -25 25 2
      vertex -95 25 2
    endloop
  endfacet
  facet normal 0 0 1
    outer loop
      vertex -95 25 2
      vertex -95 150 2
      vertex -101 153 2
    endloop
  endfacet
  facet normal 0 0 1
    outer loop
      vertex -15 165 4
      vertex -101 153 4
      vertex -19 153 4
    endloop
  endfacet
  facet normal 0 0 1
    outer loop
      vertex -101 15 4
      vertex -101 153 4
      vertex -105 165 4
    endloop
  endfacet
  facet normal 0 0 1
    outer loop
      vertex -19 15 4
      vertex -15 15 4
      vertex -19 153 4
    endloop
  endfacet
  facet normal 0 0 1
    outer loop
      vertex -15 15 4
      vertex -15 165 4
      vertex -19 153 4
    endloop
  endfacet
  facet normal 0 0 1
    outer loop
      vertex -15 165 4
      vertex -105 165 4
      vertex -101 153 4
    endloop
  endfacet
  facet normal 0 0 1
    outer loop
      vertex -105 165 4
      vertex -105 15 4
      vertex -101 15 4
    endloop
  endfacet
  facet normal 1 0 0
    outer loop
      vertex -101 153 2
      vertex -101 153 4
      vertex -101 15 4
    endloop
  endfacet
  facet normal 1 0 0
    outer loop
      vertex -101 15 2
      vertex -101 153 2
      vertex -101 15 4
    endloop
  endfacet
  facet normal -1 0 0
    outer loop
      vertex -19 153 4
      vertex -19 153 2
      vertex -19 15 4
    endloop
  endfacet
  facet normal -1 0 0
    outer loop
      vertex -19 15 4
      vertex -19 153 2
      vertex -19 15 2
    endloop
  endfacet
  facet normal 0 -1 0
    outer loop
      vertex -19 153 2
      vertex -19 153 4
      vertex -101 153 4
    endloop
  endfacet
  facet normal 0 -1 0
    outer loop
      vertex -101 153 2
      vertex -19 153 2
      vertex -101 153 4
    endloop
  endfacet
endsolid OpenSCAD_Model
